Coordinates
version=1
nRows=27
nColumns=12
inDegrees=yes

Units are S.I. units (second, meters, Newtons, ...)
Angles are in degrees

endheader
time	SC_y	SC_z	SC_x	AC_y	AC_z	AC_x	GH_y	GH_z	GH_yy	EL_x	PS_y
       0.0              -29.25          16.61          3.127          60.53          3.299          15.33          88.12          10.43          138.2          67.67          74.14
   0.02508              -29.25          16.61          3.128          60.52          3.298          15.33          88.11          10.43          138.1          67.68          74.13
   0.05016              -29.26          16.62           3.13          60.52          3.298          15.33          88.11          10.43          138.1          67.69          74.12
   0.07523              -29.26          16.62          3.132          60.51          3.297          15.33           88.1          10.44          138.0           67.7          74.11
    0.1003              -29.27          16.62          3.134          60.51          3.296          15.33           88.1          10.44          138.0          67.71          74.09
    0.1254              -29.27          16.62          3.137           60.5          3.295          15.33          88.09          10.44          137.9          67.72          74.08
    0.1505              -29.28          16.63          3.139           60.5          3.294          15.33          88.09          10.44          137.9          67.73          74.07
    0.1755              -29.29          16.63          3.142          60.49          3.293          15.33          88.08          10.44          137.8          67.74          74.05
    0.2006              -29.29          16.63          3.145          60.48          3.292          15.33          88.08          10.44          137.7          67.75          74.04
    0.2257               -29.3          16.64          3.148          60.48          3.291          15.33          88.07          10.45          137.7          67.77          74.02
    0.2508              -29.31          16.64          3.151          60.47           3.29          15.33          88.06          10.45          137.6          67.78           74.0
    0.2759              -29.32          16.64          3.155          60.46          3.288          15.33          88.06          10.45          137.5           67.8          73.98
    0.3009              -29.32          16.65          3.158          60.45          3.287          15.33          88.05          10.45          137.4          67.81          73.96
     0.326              -29.33          16.65          3.162          60.44          3.285          15.33          88.04          10.46          137.3          67.83          73.94
    0.3511              -29.35          16.66          3.167          60.43          3.284          15.33          88.03          10.46          137.2          67.85          73.91
    0.3762              -29.36          16.67          3.172          60.42          3.282          15.34          88.02          10.46          137.1          67.87          73.89
    0.4013              -29.37          16.67          3.177          60.41           3.28          15.34          88.01          10.47          136.9           67.9          73.86
    0.4263              -29.38          16.68          3.183          60.39          3.278          15.34           88.0          10.47          136.8          67.92          73.83
    0.4514               -29.4          16.69          3.189          60.38          3.275          15.34          87.98          10.47          136.6          67.95          73.79
    0.4765              -29.41          16.69          3.196          60.36          3.273          15.34          87.97          10.48          136.5          67.98          73.76
    0.5016              -29.43           16.7          3.203          60.34           3.27          15.34          87.95          10.48          136.3          68.01          73.71
    0.5266              -29.45          16.71          3.211          60.32          3.267          15.34          87.94          10.49          136.1          68.05          73.67
    0.5517              -29.47          16.72           3.22           60.3          3.263          15.34          87.92           10.5          135.9          68.09          73.62
    0.5768               -29.5          16.74           3.23          60.28          3.259          15.34           87.9           10.5          135.6          68.13          73.56
    0.6019              -29.52          16.75          3.242          60.25          3.255          15.34          87.87          10.51          135.3          68.18           73.5
     0.627              -29.55          16.77          3.254          60.22           3.25          15.34          87.85          10.52          135.0          68.24          73.43
     0.652              -29.59          16.78          3.268          60.19          3.245          15.34          87.82          10.53          134.7           68.3          73.35
